<?xml version="1.0" encoding="utf-8"?>
<!-- Generator: Adobe Illustrator 19.1.0, SVG Export Plug-In . SVG Version: 6.00 Build 0)  -->
<svg version="1.1" id="Layer_1" xmlns="http://www.w3.org/2000/svg" xmlns:xlink="http://www.w3.org/1999/xlink" x="0px" y="0px"
	 viewBox="0 0 595.3 841.9" style="enable-background:new 0 0 595.3 841.9;" xml:space="preserve">
<style type="text/css">
	.st0{fill:#405358;}
	.st1{fill:#80A6AD;}
</style>
<polygon class="st0" points="145.6,720.3 145.6,748.8 145.6,777.9 145.6,806.9 172.8,806.9 172.8,720.3 "/>
<polygon class="st0" points="186,720.3 186,748.8 186,777.9 186,806.9 213.3,806.9 213.3,720.3 "/>
<rect x="485.9" y="577.9" class="st0" width="27.3" height="77"/>
<polygon class="st0" points="451.9,654.9 479.1,654.9 456.4,604.3 437.7,623.2 "/>
<rect x="214.3" y="323.2" class="st0" width="27.3" height="77"/>
<polygon class="st0" points="305.4,348.2 337.9,400.3 310.6,400.3 289.6,375.3 "/>
<rect x="358.8" y="323.2" class="st0" width="27.3" height="77.4"/>
<rect x="262.5" y="323.2" class="st0" width="27.3" height="77"/>
<polygon class="st1" points="214.3,361.7 166.2,361.7 193.5,400.3 "/>
<polygon class="st1" points="334.7,361.7 385.5,361.7 358.2,400.3 "/>
<rect x="172.9" y="506.6" class="st0" width="27.3" height="77"/>
<rect x="221" y="506.6" class="st0" width="27.3" height="77"/>
<polygon class="st1" points="289.8,400.3 262.5,400.3 334.1,285.9 361.4,285.9 "/>
<polygon class="st1" points="241.6,400.3 214.3,400.3 262.5,323.2 289.8,323.2 "/>
<polygon class="st1" points="337.9,400.3 310.6,400.3 358.8,323.2 386.1,323.2 "/>
<g>
	<rect x="166.2" y="323.2" class="st0" width="27.3" height="38.5"/>
	<polygon class="st0" points="166.2,361.7 166.2,400.3 193.5,400.3 	"/>
</g>
<rect x="382.8" y="433.9" class="st0" width="27.3" height="77"/>
<polygon class="st0" points="473.9,458.9 506.4,510.9 479.1,510.9 458.1,485.9 "/>
<rect x="527.3" y="433.9" class="st0" width="27.3" height="77.4"/>
<rect x="431" y="433.9" class="st0" width="27.3" height="77"/>
<polygon class="st1" points="382.8,472.4 334.7,472.4 362,510.9 "/>
<polygon class="st1" points="503.2,472.4 554,472.4 526.7,510.9 "/>
<polygon class="st1" points="458.3,510.9 431,510.9 502.6,396.5 529.9,396.5 "/>
<polygon class="st1" points="410.1,510.9 382.8,510.9 431,433.9 458.3,433.9 "/>
<polygon class="st1" points="506.4,510.9 479.1,510.9 527.3,433.9 554.6,433.9 "/>
<g>
	<rect x="334.7" y="433.9" class="st0" width="27.3" height="38.5"/>
	<polygon class="st0" points="334.7,472.4 334.7,510.9 362,510.9 	"/>
</g>
<rect x="382.8" y="577.9" class="st0" width="27.3" height="77"/>
<rect x="417.4" y="577.9" class="st0" width="27.3" height="77"/>
<g>
	<rect x="348.3" y="577.9" class="st0" width="27.3" height="77"/>
</g>
<rect x="307.4" y="729.9" class="st0" width="27.3" height="77"/>
<polygon class="st0" points="267,806.9 294.2,806.9 253.8,729.9 226.5,729.9 "/>
<rect x="226.5" y="729.9" class="st0" width="27.3" height="77"/>
<rect x="111.7" y="323.2" class="st0" width="27.3" height="77"/>
<polygon class="st1" points="111.7,361.7 63.6,361.7 90.8,400.3 "/>
<g>
	<rect x="63.6" y="323.2" class="st0" width="27.3" height="38.5"/>
	<polygon class="st0" points="63.6,361.7 63.6,400.3 90.8,400.3 	"/>
</g>
<polygon class="st1" points="410.1,654.9 382.8,654.9 417.4,577.9 444.6,577.9 "/>
<polygon class="st1" points="213.3,806.9 186,806.9 226.5,729.9 253.8,729.9 "/>
<polygon class="st1" points="186,772.2 158.7,772.2 186,720.2 213.3,720.2 "/>
<polygon class="st1" points="253.8,806.9 226.5,806.9 272.1,720.3 299.4,720.3 "/>
<polygon class="st1" points="294.2,806.9 267,806.9 307.4,729.9 334.7,729.9 "/>
<polygon class="st1" points="444.6,654.9 417.4,654.9 458.6,563.3 485.9,563.3 "/>
<polygon class="st1" points="478.7,654.9 451.4,654.9 485.9,577.9 513.2,577.9 "/>
</svg>
